<svg width="314" height="52" viewBox="0 0 314 52" fill="none" xmlns="http://www.w3.org/2000/svg">
<g clip-path="url(#clip0_18077_86460)">
<path d="M104.015 52.0003V40.576H100.56V52.0003H104.015ZM114.382 52.0003V40.576H110.926V52.0003H114.382Z" fill="white"/>
<path d="M169.278 52.0003V40.576H165.822V52.0003H169.278Z" fill="white"/>
<path fill-rule="evenodd" clip-rule="evenodd" d="M55.7524 40.576V52.0003H52.2969V40.576H55.7524Z" fill="white"/>
<path d="M48.8441 52.0003V40.576H38.4775V52.0003H48.8441Z" fill="white"/>
<path fill-rule="evenodd" clip-rule="evenodd" d="M30.7574 40.5951V51.9998H28.8574V40.5951H30.7574Z" fill="white"/>
<path d="M26.9547 51.9998V40.5951H21.2549V51.9998H26.9547Z" fill="white"/>
<path d="M11.5656 51.9998V40.5951H6.22363V51.9998H11.5656Z" fill="white"/>
<path fill-rule="evenodd" clip-rule="evenodd" d="M2.03667 51.9998V40.5951H0.136719V51.9998H2.03667Z" fill="white"/>
<path d="M17.6695 52V40.5953H15.7695V52H17.6695Z" fill="white"/>
<path fill-rule="evenodd" clip-rule="evenodd" d="M127.817 40.576V52.0003H124.362V40.576H127.817Z" fill="white"/>
<path d="M140.276 52.0003V46.2882V40.576H133.365V52.0003H140.276Z" fill="white"/>
<path d="M82.6945 52.0003V40.576H72.9795V52.0003H82.6945Z" fill="white"/>
<path fill-rule="evenodd" clip-rule="evenodd" d="M66.9888 52.0003V40.576H63.5332V52.0003H66.9888Z" fill="white"/>
<path d="M91.6253 52.0003V40.576H88.1699V52.0003H91.6253Z" fill="white"/>
<path fill-rule="evenodd" clip-rule="evenodd" d="M152.635 52.0003V40.576H149.18V52.0003H152.635Z" fill="white"/>
<path d="M159.954 52.0003V40.576H156.499V52.0003H159.954Z" fill="white"/>
<path d="M179.194 52.0003V40.576H175.738V52.0003H179.194Z" fill="white"/>
<path fill-rule="evenodd" clip-rule="evenodd" d="M194.587 52.0003V40.576H191.132V52.0003H194.587Z" fill="white"/>
<path d="M186.89 52V40.5757H183.435V52H186.89Z" fill="white"/>
<path d="M3.64847 29.8449V0H0.0712891V29.8449H3.64847ZM3.64847 0L11.5378 29.8449H15.262L7.42162 0H3.64847ZM30.5018 29.8449V0H26.9246V29.8449H30.5018ZM15.262 29.8449H19.0352L26.9246 0H23.1514L15.262 29.8449Z" fill="white"/>
<path d="M121.017 19.1307C121.017 12.9231 115.919 7.87926 109.644 7.87926C103.418 7.87926 98.3193 12.9231 98.3193 19.1307C98.3193 25.3385 103.418 30.3337 109.644 30.3337C114.008 30.3337 117.929 27.9574 119.841 24.0291L116.654 22.4771C115.331 25.1445 112.634 26.8419 109.644 26.8419C105.673 26.8419 102.388 23.835 101.947 20.0037H121.017V19.1307ZM102.29 16.8514C103.271 13.699 106.163 11.4195 109.644 11.4195C113.125 11.4195 116.067 13.699 117.047 16.8514H102.29Z" fill="white"/>
<path d="M56.8516 19.1307C56.8516 12.9231 51.7531 7.87926 45.478 7.87926C39.2518 7.87926 34.1533 12.9231 34.1533 19.1307C34.1533 25.3385 39.2518 30.3337 45.478 30.3337C49.8414 30.3337 53.7634 27.9574 55.675 24.0291L52.4885 22.4771C51.1648 25.1445 48.4684 26.8419 45.478 26.8419C41.5071 26.8419 38.2224 23.835 37.7813 20.0037H56.8516V19.1307ZM38.1242 16.8514C39.1047 13.699 41.9972 11.4195 45.478 11.4195C48.9588 11.4195 51.9003 13.699 52.8807 16.8514H38.1242Z" fill="white"/>
<path d="M136.055 7.87926C132.868 7.87926 130.074 9.47965 128.456 11.9045V8.36423H124.877V29.8488H128.456V18.0153C128.456 14.475 131.397 11.5166 135.025 11.5166C138.604 11.5166 141.594 14.475 141.594 18.0153V29.8488H145.272V16.9968C145.272 12.0016 141.104 7.87926 136.055 7.87926Z" fill="white"/>
<path fill-rule="evenodd" clip-rule="evenodd" d="M156.317 2.36366H152.371V26H156.317V2.36366Z" fill="white"/>
<path d="M156.317 7.87881H160.263V11.8182H156.317V7.87881Z" fill="white"/>
<path d="M148.426 7.87926H152.371V11.8186H148.426V7.87926Z" fill="white"/>
<path d="M156.317 26H160.263V29.9394H156.317V26Z" fill="white"/>
<path fill-rule="evenodd" clip-rule="evenodd" d="M169.732 8.27281H165.786V29.9394H169.732V8.27281Z" fill="white"/>
<path d="M165.786 1.52588e-05H169.732V4.33334H165.786V1.52588e-05Z" fill="white"/>
<path d="M86.5362 7.87926C89.126 7.87926 91.1374 8.6429 92.5691 10.1701C94.032 11.6691 94.7632 13.762 94.7632 16.4489V29.9398H90.8326V16.8731C90.8326 14.9499 90.3601 13.4792 89.4152 12.461C88.4709 11.4146 87.0996 10.8914 85.302 10.8914C83.4732 10.8914 82.0564 11.4711 81.0511 12.6307C80.0457 13.762 79.5426 15.3035 79.5426 17.255V29.9398H75.7031V16.8731C75.7031 14.9217 75.2306 13.4368 74.2863 12.4186C73.3719 11.4005 72.0162 10.8914 70.2179 10.8914C68.4204 10.8914 66.9882 11.4429 65.9213 12.5459C64.8856 13.6489 64.3675 15.2045 64.3675 17.2126V29.9398H60.4365V8.17619H63.8191L64.2302 14.8368C64.596 12.3479 65.3883 10.5661 66.6071 9.49132C67.8258 8.41657 69.4413 7.87926 71.4521 7.87926C73.4635 7.87926 75.1084 8.40245 76.3887 9.4489C77.6989 10.4953 78.5828 12.2913 79.0396 14.8368C79.4659 12.3762 80.3199 10.6085 81.5989 9.53375C82.8792 8.43076 84.5247 7.87926 86.5362 7.87926Z" fill="white"/>
<path d="M175.259 8.27281H179.599V12.6061H175.259V8.27281Z" fill="white"/>
<path d="M194.588 8.27281H190.247V12.6061H194.588V8.27281Z" fill="white"/>
<path d="M178.415 12.6065H182.756V16.9398H178.415V12.6065Z" fill="white"/>
<path d="M178.415 21.2728H182.756V25.6061H178.415V21.2728Z" fill="white"/>
<path d="M191.431 21.2728H187.091V25.6061H191.431V21.2728Z" fill="white"/>
<path d="M175.259 25.6065H179.599V29.9398H175.259V25.6065Z" fill="white"/>
<path d="M194.588 25.6065H190.247V29.9398H194.588V25.6065Z" fill="white"/>
<path d="M191.431 12.6065H187.091V16.9398H191.431V12.6065Z" fill="white"/>
<path d="M181.57 16.9392H188.278V21.2726H181.57V16.9392Z" fill="white"/>
</g>
<defs>
<clipPath id="clip0_18077_86460">
<rect width="313.857" height="52" fill="white" transform="translate(0.0712891)"/>
</clipPath>
</defs>
</svg>
