<svg width="24" height="25" viewBox="0 0 24 25" fill="none" xmlns="http://www.w3.org/2000/svg">
    <path d="M8 15.5359V17.5359M12 11.5359V17.5359M16 7.53589V17.5359M7.8 21.5359H16.2C17.8802 21.5359 18.7202 21.5359 19.362 21.2089C19.9265 20.9213 20.3854 20.4623 20.673 19.8979C21 19.2561 21 18.416 21 16.7359V8.33589C21 6.65573 21 5.81565 20.673 5.17392C20.3854 4.60943 19.9265 4.15049 19.362 3.86287C18.7202 3.53589 17.8802 3.53589 16.2 3.53589H7.8C6.11984 3.53589 5.27976 3.53589 4.63803 3.86287C4.07354 4.15049 3.6146 4.60943 3.32698 5.17392C3 5.81565 3 6.65573 3 8.33589V16.7359C3 18.416 3 19.2561 3.32698 19.8979C3.6146 20.4623 4.07354 20.9213 4.63803 21.2089C5.27976 21.5359 6.11984 21.5359 7.8 21.5359Z" stroke="#667085" stroke-width="2" stroke-linecap="round" stroke-linejoin="round"/>
</svg>
