<svg width="22" height="23" viewBox="0 0 22 23" fill="none" xmlns="http://www.w3.org/2000/svg">
    <path d="M5 14.5356L7 16.5356L11.5 12.0356M7 7.53564V4.73564C7 3.61554 7 3.05549 7.21799 2.62766C7.40973 2.25134 7.71569 1.94538 8.09202 1.75363C8.51984 1.53564 9.07989 1.53564 10.2 1.53564H17.8C18.9201 1.53564 19.4802 1.53564 19.908 1.75363C20.2843 1.94538 20.5903 2.25134 20.782 2.62766C21 3.05549 21 3.61554 21 4.73564V12.3356C21 13.4557 21 14.0158 20.782 14.4436C20.5903 14.82 20.2843 15.1259 19.908 15.3177C19.4802 15.5356 18.9201 15.5356 17.8 15.5356H15M4.2 21.5356H11.8C12.9201 21.5356 13.4802 21.5356 13.908 21.3177C14.2843 21.1259 14.5903 20.82 14.782 20.4436C15 20.0158 15 19.4557 15 18.3356V10.7356C15 9.61554 15 9.05549 14.782 8.62766C14.5903 8.25134 14.2843 7.94538 13.908 7.75363C13.4802 7.53564 12.9201 7.53564 11.8 7.53564H4.2C3.0799 7.53564 2.51984 7.53564 2.09202 7.75363C1.71569 7.94538 1.40973 8.25134 1.21799 8.62766C1 9.05549 1 9.61554 1 10.7356V18.3356C1 19.4557 1 20.0158 1.21799 20.4436C1.40973 20.82 1.71569 21.1259 2.09202 21.3177C2.51984 21.5356 3.07989 21.5356 4.2 21.5356Z" stroke="#667085" stroke-width="2" stroke-linecap="round" stroke-linejoin="round"/>
</svg>
