<svg width="21" height="20" viewBox="0 0 21 20" fill="none" xmlns="http://www.w3.org/2000/svg">
    <path d="M4.66669 12.5C3.89012 12.5 3.50183 12.5 3.19555 12.3731C2.78717 12.2039 2.46271 11.8795 2.29355 11.4711C2.16669 11.1648 2.16669 10.7765 2.16669 9.99996V4.33329C2.16669 3.39987 2.16669 2.93316 2.34834 2.57664C2.50813 2.26304 2.7631 2.00807 3.0767 1.84828C3.43322 1.66663 3.89993 1.66663 4.83335 1.66663H10.5C11.2766 1.66663 11.6649 1.66663 11.9712 1.79349C12.3795 1.96265 12.704 2.28711 12.8732 2.69549C13 3.00177 13 3.39006 13 4.16663M10.6667 18.3333H16.1667C17.1001 18.3333 17.5668 18.3333 17.9233 18.1516C18.2369 17.9918 18.4919 17.7369 18.6517 17.4233C18.8334 17.0668 18.8334 16.6 18.8334 15.6666V10.1666C18.8334 9.23321 18.8334 8.7665 18.6517 8.40998C18.4919 8.09637 18.2369 7.8414 17.9233 7.68162C17.5668 7.49996 17.1001 7.49996 16.1667 7.49996H10.6667C9.73327 7.49996 9.26656 7.49996 8.91004 7.68162C8.59643 7.8414 8.34147 8.09637 8.18168 8.40998C8.00002 8.7665 8.00002 9.23321 8.00002 10.1666V15.6666C8.00002 16.6 8.00002 17.0668 8.18168 17.4233C8.34147 17.7369 8.59643 17.9918 8.91004 18.1516C9.26656 18.3333 9.73327 18.3333 10.6667 18.3333Z" stroke="white" stroke-width="1.66667" stroke-linecap="round" stroke-linejoin="round"/>
</svg>
