<svg width="66" height="67" viewBox="0 0 66 67" fill="none" xmlns="http://www.w3.org/2000/svg">
    <rect x="5" y="5.53589" width="56" height="56" rx="28" fill="#F4EBFF"/>
    <rect x="5" y="5.53589" width="56" height="56" rx="28" stroke="#F9F5FF" stroke-width="10"/>
    <path d="M38.8333 30.0358C38.8333 29.4387 38.6055 28.8416 38.1499 28.386C37.6943 27.9304 37.0972 27.7026 36.5 27.7026M36.5 37.0359C40.366 37.0359 43.5 33.9019 43.5 30.0359C43.5 26.1699 40.366 23.0359 36.5 23.0359C32.634 23.0359 29.5 26.1699 29.5 30.0359C29.5 30.3552 29.5214 30.6695 29.5628 30.9774C29.6309 31.4839 29.6649 31.7372 29.642 31.8974C29.6181 32.0643 29.5877 32.1543 29.5055 32.3014C29.4265 32.4427 29.2873 32.5819 29.009 32.8602L23.0467 38.8225C22.845 39.0243 22.7441 39.1252 22.6719 39.2429C22.608 39.3473 22.5608 39.4611 22.5322 39.5801C22.5 39.7144 22.5 39.8571 22.5 40.1424V42.1692C22.5 42.8226 22.5 43.1493 22.6272 43.3989C22.739 43.6184 22.9175 43.7969 23.137 43.9087C23.3866 44.0359 23.7133 44.0359 24.3667 44.0359H27.1667V41.7026H29.5V39.3692H31.8333L33.6757 37.5269C33.954 37.2486 34.0932 37.1094 34.2345 37.0304C34.3816 36.9482 34.4716 36.9178 34.6385 36.8939C34.7987 36.871 35.052 36.905 35.5585 36.9731C35.8664 37.0145 36.1807 37.0359 36.5 37.0359Z" stroke="#7F56D9" stroke-width="2" stroke-linecap="round" stroke-linejoin="round"/>
</svg>
