<svg width="22" height="23" viewBox="0 0 22 23" fill="none" xmlns="http://www.w3.org/2000/svg">
    <path d="M1 11.536L10.6422 16.3571C10.7734 16.4227 10.839 16.4555 10.9078 16.4684C10.9687 16.4798 11.0313 16.4798 11.0922 16.4684C11.161 16.4555 11.2266 16.4227 11.3578 16.3571L21 11.536M1 16.536L10.6422 21.3571C10.7734 21.4227 10.839 21.4555 10.9078 21.4684C10.9687 21.4798 11.0313 21.4798 11.0922 21.4684C11.161 21.4555 11.2266 21.4227 11.3578 21.3571L21 16.536M1 6.53595L10.6422 1.71484C10.7734 1.64925 10.839 1.61645 10.9078 1.60354C10.9687 1.59211 11.0313 1.59211 11.0922 1.60354C11.161 1.61645 11.2266 1.64925 11.3578 1.71484L21 6.53595L11.3578 11.3571C11.2266 11.4227 11.161 11.4555 11.0922 11.4684C11.0313 11.4798 10.9687 11.4798 10.9078 11.4684C10.839 11.4555 10.7734 11.4227 10.6422 11.3571L1 6.53595Z" stroke="#667085" stroke-width="2" stroke-linecap="round" stroke-linejoin="round"/>
</svg>
