<svg width="56" height="56" viewBox="0 0 56 56" fill="none" xmlns="http://www.w3.org/2000/svg">
    <rect x="4" y="4" width="48" height="48" rx="24" fill="#FEF0C7"/>
    <rect x="4" y="4" width="48" height="48" rx="24" stroke="#FFFAEB" stroke-width="8"/>
    <path d="M38 27V24.2C38 23.0799 38 22.5198 37.782 22.092C37.5903 21.7157 37.2843 21.4097 36.908 21.218C36.4802 21 35.9201 21 34.8 21H21.2C20.0799 21 19.5198 21 19.092 21.218C18.7157 21.4097 18.4097 21.7157 18.218 22.092C18 22.5198 18 23.0799 18 24.2V27.8C18 28.9201 18 29.4802 18.218 29.908C18.4097 30.2843 18.7157 30.5903 19.092 30.782C19.5198 31 20.0799 31 21.2 31H27M28 26H28.005M33 26H33.005M23 26H23.005M35.25 33V31.25C35.25 30.2835 34.4665 29.5 33.5 29.5C32.5335 29.5 31.75 30.2835 31.75 31.25V33M28.25 26C28.25 26.1381 28.1381 26.25 28 26.25C27.8619 26.25 27.75 26.1381 27.75 26C27.75 25.8619 27.8619 25.75 28 25.75C28.1381 25.75 28.25 25.8619 28.25 26ZM33.25 26C33.25 26.1381 33.1381 26.25 33 26.25C32.8619 26.25 32.75 26.1381 32.75 26C32.75 25.8619 32.8619 25.75 33 25.75C33.1381 25.75 33.25 25.8619 33.25 26ZM23.25 26C23.25 26.1381 23.1381 26.25 23 26.25C22.8619 26.25 22.75 26.1381 22.75 26C22.75 25.8619 22.8619 25.75 23 25.75C23.1381 25.75 23.25 25.8619 23.25 26ZM31.6 37H35.4C35.9601 37 36.2401 37 36.454 36.891C36.6422 36.7951 36.7951 36.6422 36.891 36.454C37 36.2401 37 35.9601 37 35.4V34.6C37 34.0399 37 33.7599 36.891 33.546C36.7951 33.3578 36.6422 33.2049 36.454 33.109C36.2401 33 35.9601 33 35.4 33H31.6C31.0399 33 30.7599 33 30.546 33.109C30.3578 33.2049 30.2049 33.3578 30.109 33.546C30 33.7599 30 34.0399 30 34.6V35.4C30 35.9601 30 36.2401 30.109 36.454C30.2049 36.6422 30.3578 36.7951 30.546 36.891C30.7599 37 31.0399 37 31.6 37Z" stroke="#DC6803" stroke-width="2" stroke-linecap="round" stroke-linejoin="round"/>
</svg>
