<svg width="20" height="16" viewBox="0 0 20 16" fill="none" xmlns="http://www.w3.org/2000/svg">
    <path d="M18.3334 6.16663V3.83329C18.3334 2.89987 18.3334 2.43316 18.1517 2.07664C17.9919 1.76304 17.7369 1.50807 17.4233 1.34828C17.0668 1.16663 16.6001 1.16663 15.6667 1.16663H4.33335C3.39993 1.16663 2.93322 1.16663 2.5767 1.34828C2.2631 1.50807 2.00813 1.76304 1.84834 2.07664C1.66669 2.43316 1.66669 2.89987 1.66669 3.83329V6.83329C1.66669 7.76671 1.66669 8.23342 1.84834 8.58994C2.00813 8.90355 2.2631 9.15851 2.5767 9.3183C2.93322 9.49996 3.39993 9.49996 4.33335 9.49996H9.16669M10 5.33329H10.0042M14.1667 5.33329H14.1709M5.83335 5.33329H5.83752M16.0417 11.1666V9.70829C16.0417 8.90288 15.3888 8.24996 14.5834 8.24996C13.7779 8.24996 13.125 8.90288 13.125 9.70829V11.1666M10.2084 5.33329C10.2084 5.44835 10.1151 5.54163 10 5.54163C9.88496 5.54163 9.79169 5.44835 9.79169 5.33329C9.79169 5.21823 9.88496 5.12496 10 5.12496C10.1151 5.12496 10.2084 5.21823 10.2084 5.33329ZM14.375 5.33329C14.375 5.44835 14.2817 5.54163 14.1667 5.54163C14.0516 5.54163 13.9584 5.44835 13.9584 5.33329C13.9584 5.21823 14.0516 5.12496 14.1667 5.12496C14.2817 5.12496 14.375 5.21823 14.375 5.33329ZM6.04169 5.33329C6.04169 5.44835 5.94841 5.54163 5.83335 5.54163C5.71829 5.54163 5.62502 5.44835 5.62502 5.33329C5.62502 5.21823 5.71829 5.12496 5.83335 5.12496C5.94841 5.12496 6.04169 5.21823 6.04169 5.33329ZM13 14.5H16.1667C16.6334 14.5 16.8668 14.5 17.045 14.4091C17.2018 14.3292 17.3293 14.2018 17.4092 14.045C17.5 13.8667 17.5 13.6333 17.5 13.1666V12.5C17.5 12.0332 17.5 11.7999 17.4092 11.6216C17.3293 11.4648 17.2018 11.3373 17.045 11.2575C16.8668 11.1666 16.6334 11.1666 16.1667 11.1666H13C12.5333 11.1666 12.3 11.1666 12.1217 11.2575C11.9649 11.3373 11.8374 11.4648 11.7575 11.6216C11.6667 11.7999 11.6667 12.0332 11.6667 12.5V13.1666C11.6667 13.6333 11.6667 13.8667 11.7575 14.045C11.8374 14.2018 11.9649 14.3292 12.1217 14.4091C12.3 14.5 12.5333 14.5 13 14.5Z" stroke="#475467" stroke-width="1.66667" stroke-linecap="round" stroke-linejoin="round"/>
</svg>
