<svg width="22" height="23" viewBox="0 0 22 23" fill="none" xmlns="http://www.w3.org/2000/svg">
    <path d="M1 11.5357L10.6422 16.3568C10.7734 16.4224 10.839 16.4552 10.9078 16.4681C10.9687 16.4796 11.0313 16.4796 11.0922 16.4681C11.161 16.4552 11.2266 16.4224 11.3578 16.3568L21 11.5357M1 16.5357L10.6422 21.3568C10.7734 21.4224 10.839 21.4552 10.9078 21.4681C10.9687 21.4796 11.0313 21.4796 11.0922 21.4681C11.161 21.4552 11.2266 21.4224 11.3578 21.3568L21 16.5357M1 6.53571L10.6422 1.7146C10.7734 1.649 10.839 1.61621 10.9078 1.6033C10.9687 1.59187 11.0313 1.59187 11.0922 1.6033C11.161 1.61621 11.2266 1.649 11.3578 1.7146L21 6.53571L11.3578 11.3568C11.2266 11.4224 11.161 11.4552 11.0922 11.4681C11.0313 11.4796 10.9687 11.4796 10.9078 11.4681C10.839 11.4552 10.7734 11.4224 10.6422 11.3568L1 6.53571Z" stroke="#667085" stroke-width="2" stroke-linecap="round" stroke-linejoin="round"/>
</svg>
