<svg width="24" height="25" viewBox="0 0 24 25" fill="none" xmlns="http://www.w3.org/2000/svg">
    <path d="M22 21.5359V19.5359C22 17.672 20.7252 16.1059 19 15.6619M15.5 3.82665C16.9659 4.42003 18 5.8572 18 7.53589C18 9.21458 16.9659 10.6517 15.5 11.2451M17 21.5359C17 19.6721 17 18.7402 16.6955 18.0052C16.2895 17.025 15.5108 16.2463 14.5307 15.8404C13.7956 15.5359 12.8638 15.5359 11 15.5359H8C6.13623 15.5359 5.20435 15.5359 4.46927 15.8404C3.48915 16.2463 2.71046 17.025 2.30448 18.0052C2 18.7402 2 19.6721 2 21.5359M13.5 7.53589C13.5 9.74503 11.7091 11.5359 9.5 11.5359C7.29086 11.5359 5.5 9.74503 5.5 7.53589C5.5 5.32675 7.29086 3.53589 9.5 3.53589C11.7091 3.53589 13.5 5.32675 13.5 7.53589Z" stroke="#667085" stroke-width="2" stroke-linecap="round" stroke-linejoin="round"/>
</svg>
